# xmcd
#
# Track frame offsets: 
#        150
#        10761
#        21831
#        29958
#        40731
#        51936
#        63060
#        74805
#        87441
#        98592
#        109338
#        118383
#        126240
#        140091
#        149082
#        162933
#        174273
#        190419
#        201786
#        214476
#
# Disc length: 2991 seconds
#
# Revision: 0
# Processed by: cddbd v1.5.2PL0 Copyright (c) Steve Scherf et al.
# Submitted via: ExactAudioCopy v1.0b1
#
DISCID=3c0bad14
DTITLE=Paul Anka - Paul Anka
DYEAR=2009
DGENRE=Blues
TTITLE0=Diana
TTITLE1=Don't gamble with love
TTITLE2=When I stop loving you
TTITLE3=I love you baby
TTITLE4=You are my destiny
TTITLE5=Crazy love
TTITLE6=Put your head on my shoulder
TTITLE7=Puppy love
TTITLE8=Lonely boy
TTITLE9=I miss you so
TTITLE10=Let the belss keep ringing
TTITLE11=The teen commandements
TTITLE12=All of sudden
TTITLE13=Pity, pity
TTITLE14=So it's good by
TTITLE15=I remember
TTITLE16=Autum leaves
TTITLE17=Down by the riverside
TTITLE18=Jambalaya
TTITLE19=Sing, sing, sing
EXTD=
EXTT0=
EXTT1=
EXTT2=
EXTT3=
EXTT4=
EXTT5=
EXTT6=
EXTT7=
EXTT8=
EXTT9=
EXTT10=
EXTT11=
EXTT12=
EXTT13=
EXTT14=
EXTT15=
EXTT16=
EXTT17=
EXTT18=
EXTT19=
PLAYORDER=
